<svg xmlns="http://www.w3.org/2000/svg" viewBox="0 0 512 512" role="img" aria-label="áäèÙÙê Ôàæ×">
  <defs>
    <radialGradient id="glow" cx="50%" cy="28%" r="45%">
      <stop offset="0%" stop-color="#e8c96a" stop-opacity="0.55"/>
      <stop offset="100%" stop-color="#1a1410" stop-opacity="0"/>
    </radialGradient>
    <linearGradient id="gold" x1="0%" y1="0%" x2="100%" y2="100%">
      <stop offset="0%" stop-color="#e8c96a"/>
      <stop offset="100%" stop-color="#8a6f2e"/>
    </linearGradient>
    <linearGradient id="page" x1="0%" y1="0%" x2="0%" y2="100%">
      <stop offset="0%" stop-color="#faf6ee"/>
      <stop offset="100%" stop-color="#e8dcc4"/>
    </linearGradient>
  </defs>
  <rect width="512" height="512" rx="108" fill="#1a1410"/>
  <circle cx="256" cy="150" r="120" fill="url(#glow)"/>
  <path d="M256 88c-6 0-11 4-12 10l-8 44c-1 6-6 10-12 10s-11-4-12-10l-8-44c-1-6-6-10-12-10-8 0-14 7-12 15l18 78c2 8 9 14 18 14h36c9 0 16-6 18-14l18-78c2-8-4-15-12-15z" fill="url(#gold)"/>
  <ellipse cx="256" cy="98" rx="14" ry="18" fill="#f5d87a" opacity="0.9"/>
  <path d="M148 200h216c12 0 22 10 22 22v196c0 12-10 22-22 22H148c-12 0-22-10-22-22V222c0-12 10-22 22-22z" fill="#2a2218" stroke="url(#gold)" stroke-width="6"/>
  <path d="M256 200v240" stroke="#8a6f2e" stroke-width="4" opacity="0.6"/>
  <path d="M168 248h76M168 296h88M168 344h64" stroke="#c9a84c" stroke-width="5" stroke-linecap="round" opacity="0.55"/>
  <path d="M268 248h76M244 296h88M276 344h64" stroke="#c9a84c" stroke-width="5" stroke-linecap="round" opacity="0.55"/>
  <path d="M178 210c0-8 35-18 78-18s78 10 78 18v8H178v-8z" fill="url(#page)"/>
  <path d="M256 210c43 0 78 10 78 18v8H256v-26z" fill="#f0e6d2"/>
  <circle cx="256" cy="418" r="6" fill="url(#gold)" opacity="0.8"/>
</svg>
